<svg width="800" height="800" viewBox="0 0 800 800" fill="none" xmlns="http://www.w3.org/2000/svg">
<path d="M800 40.1003V757.895C799.874 759.44 799.157 760.876 798 761.905C797.517 771.32 793.57 780.221 786.92 786.887C780.271 793.554 771.391 797.511 762 797.995H552V489.223H650C656 489.223 656 489.223 658 483.208L664 433.083C666 413.033 668 392.982 672 372.932C676 352.882 672 366.917 668 366.917H552V288.722C552 282.707 554 274.687 554 268.672C554.869 260.462 558.52 252.799 564.343 246.961C570.166 241.123 577.81 237.463 586 236.591L612 232.581H672C676 232.581 676 232.581 676 228.571V126.316C676 124.311 676 122.306 672 122.306H580C557.202 121.678 534.581 126.489 514 136.341C498.777 141.477 484.737 149.625 472.712 160.302C460.688 170.979 450.925 183.967 444 198.496C432.593 220.787 427.083 245.64 428 270.677C426 300.752 428 332.832 428 364.912H326C322 364.912 322 366.917 322 368.922V483.208C322 487.218 322 487.218 326 487.218H428V795.99C426.843 797.018 426.126 798.455 426 800H38C28.6085 799.516 19.7295 795.559 13.0799 788.892C6.43031 782.226 2.48255 773.325 2 763.91C-1.93715e-06 763.91 0 761.905 0 759.9V40.1003C0 38.0952 -1.93715e-06 36.0902 2 36.0902C2.48255 26.6752 6.43031 17.7739 13.0799 11.1077C19.7295 4.44141 28.6085 0.483763 38 0H762C771.391 0.483763 780.271 4.44141 786.92 11.1077C793.57 17.7739 797.517 26.6752 798 36.0902L800 40.1003Z" fill="#596166"/>
</svg>
