<svg width="800" height="800" viewBox="0 0 800 800" fill="none" xmlns="http://www.w3.org/2000/svg">
<g clip-path="url(#clip0_51_55)">
<path d="M737.5 0H62.5C27.9687 0 0 27.9687 0 62.5V737.5C0 772.031 27.9687 800 62.5 800H737.5C772.031 800 800 772.031 800 737.5V62.5C800 27.9687 772.031 0 737.5 0ZM288.125 567.344H210.156V317.812H288.125V567.344ZM247.031 286.562H246.406C218.125 286.562 199.844 267.5 199.844 243.281C199.844 218.594 218.75 200 247.5 200C276.25 200 293.906 218.594 294.531 243.281C294.688 267.344 276.406 286.562 247.031 286.562ZM600 567.344H511.562V438.281C511.562 404.531 497.813 381.406 467.344 381.406C444.063 381.406 431.094 397.031 425.156 412.031C422.969 417.344 423.281 424.844 423.281 432.5V567.344H335.625C335.625 567.344 336.719 338.594 335.625 317.812H423.281V357.031C428.437 339.844 456.406 315.469 501.094 315.469C556.563 315.469 600 351.406 600 428.594V567.344Z" fill="#596166"/>
<path d="M288.125 567.344V568.125H288.906V567.344H288.125ZM210.156 567.344H209.375V568.125H210.156V567.344ZM210.156 317.812V317.031H209.375V317.812H210.156ZM288.125 317.812H288.906V317.031H288.125V317.812ZM294.531 243.281L295.312 243.276L295.312 243.269L295.312 243.261L294.531 243.281ZM600 567.344V568.125H600.781V567.344H600ZM511.562 567.344H510.781V568.125H511.562V567.344ZM425.156 412.031L425.879 412.329L425.883 412.319L425.156 412.031ZM423.281 567.344V568.125H424.062V567.344H423.281ZM335.625 567.344L334.844 567.34L334.84 568.125H335.625V567.344ZM335.625 317.812V317.031H334.802L334.845 317.854L335.625 317.812ZM423.281 317.812H424.062V317.031H423.281V317.812ZM423.281 357.031H422.5L424.03 357.256L423.281 357.031ZM737.5 -0.78125H62.5V0.78125H737.5V-0.78125ZM62.5 -0.78125C27.5373 -0.78125 -0.78125 27.5373 -0.78125 62.5H0.78125C0.78125 28.4002 28.4002 0.78125 62.5 0.78125V-0.78125ZM-0.78125 62.5V737.5H0.78125V62.5H-0.78125ZM-0.78125 737.5C-0.78125 772.463 27.5373 800.781 62.5 800.781V799.219C28.4002 799.219 0.78125 771.6 0.78125 737.5H-0.78125ZM62.5 800.781H737.5V799.219H62.5V800.781ZM737.5 800.781C772.463 800.781 800.781 772.463 800.781 737.5H799.219C799.219 771.6 771.6 799.219 737.5 799.219V800.781ZM800.781 737.5V62.5H799.219V737.5H800.781ZM800.781 62.5C800.781 27.5373 772.463 -0.78125 737.5 -0.78125V0.78125C771.6 0.78125 799.219 28.4002 799.219 62.5H800.781ZM288.125 566.563H210.156V568.125H288.125V566.563ZM210.938 567.344V317.812H209.375V567.344H210.938ZM210.156 318.594H288.125V317.031H210.156V318.594ZM287.344 317.812V567.344H288.906V317.812H287.344ZM247.031 285.781H246.406V287.344H247.031V285.781ZM246.406 285.781C218.527 285.781 200.625 267.04 200.625 243.281H199.063C199.063 267.96 217.723 287.344 246.406 287.344V285.781ZM200.625 243.281C200.625 231.145 205.268 220.535 213.423 212.955C221.58 205.372 233.295 200.781 247.5 200.781V199.219C232.955 199.219 220.842 203.924 212.359 211.811C203.873 219.699 199.063 230.73 199.063 243.281H200.625ZM247.5 200.781C261.702 200.781 273.101 205.371 281.022 212.947C288.945 220.525 293.442 231.142 293.75 243.301L295.312 243.261C294.995 230.733 290.352 219.709 282.103 211.818C273.852 203.926 262.048 199.219 247.5 199.219V200.781ZM293.75 243.286C293.827 255.112 289.376 265.722 281.317 273.379C273.258 281.036 261.545 285.781 247.031 285.781V287.344C261.892 287.344 274.007 282.479 282.394 274.512C290.78 266.543 295.392 255.513 295.312 243.276L293.75 243.286ZM600 566.563H511.562V568.125H600V566.563ZM512.344 567.344V438.281H510.781V567.344H512.344ZM512.344 438.281C512.344 421.318 508.891 406.913 501.512 396.729C494.104 386.506 482.803 380.625 467.344 380.625V382.188C482.353 382.188 493.162 387.869 500.246 397.646C507.359 407.462 510.781 421.495 510.781 438.281H512.344ZM467.344 380.625C443.625 380.625 430.435 396.572 424.43 411.744L425.883 412.319C431.752 397.49 444.5 382.188 467.344 382.188V380.625ZM424.434 411.734C423.29 414.511 422.815 417.817 422.618 421.343C422.421 424.868 422.5 428.696 422.5 432.5H424.062C424.062 428.648 423.985 424.897 424.178 421.43C424.372 417.964 424.835 414.864 425.879 412.329L424.434 411.734ZM422.5 432.5V567.344H424.062V432.5H422.5ZM423.281 566.563H335.625V568.125H423.281V566.563ZM335.625 567.344C336.406 567.347 336.406 567.347 336.406 567.345C336.406 567.343 336.406 567.341 336.406 567.337C336.406 567.33 336.406 567.32 336.406 567.306C336.407 567.278 336.407 567.237 336.407 567.182C336.408 567.072 336.408 566.907 336.409 566.691C336.411 566.257 336.414 565.614 336.418 564.773C336.426 563.093 336.437 560.625 336.451 557.478C336.479 551.182 336.517 542.165 336.56 531.28C336.646 509.51 336.748 480.266 336.816 450.373C336.953 390.608 336.954 328.19 336.405 317.771L334.845 317.854C335.39 328.216 335.391 390.564 335.254 450.369C335.186 480.261 335.083 509.504 334.998 531.274C334.955 542.159 334.916 551.175 334.889 557.471C334.875 560.618 334.864 563.086 334.856 564.766C334.852 565.606 334.849 566.25 334.847 566.683C334.846 566.9 334.845 567.064 334.845 567.174C334.844 567.229 334.844 567.271 334.844 567.298C334.844 567.312 334.844 567.323 334.844 567.33C334.844 567.333 334.844 567.336 334.844 567.337C334.844 567.339 334.844 567.34 335.625 567.344ZM335.625 318.594H423.281V317.031H335.625V318.594ZM422.5 317.812V357.031H424.062V317.812H422.5ZM424.03 357.256C426.536 348.901 434.656 338.646 447.777 330.468C460.874 322.304 478.894 316.25 501.094 316.25V314.687C478.606 314.687 460.298 320.821 446.95 329.142C433.625 337.448 425.183 347.974 422.533 356.807L424.03 357.256ZM501.094 316.25C528.658 316.25 553.164 325.176 570.783 343.625C588.403 362.077 599.219 390.145 599.219 428.594H600.781C600.781 389.855 589.879 361.36 571.913 342.546C553.945 323.731 528.999 314.687 501.094 314.687V316.25ZM599.219 428.594V567.344H600.781V428.594H599.219Z" fill="white"/>
</g>
<defs>
<clipPath id="clip0_51_55">
<rect width="800" height="800" fill="white"/>
</clipPath>
</defs>
</svg>
