<svg width="800" height="800" viewBox="0 0 800 800" fill="none" xmlns="http://www.w3.org/2000/svg">
<rect width="800" height="800" rx="100" fill="white"/>
<g filter="url(#filter0_d_13_9)">
<path d="M557.26 427.325C530.772 427.325 505.89 416.146 483.352 397.845L488.797 372.025L488.977 370.998C493.954 343.573 509.352 297.468 557.241 297.468C593.123 297.468 622.224 326.588 622.224 362.451C622.224 398.224 593.105 427.343 557.241 427.343L557.26 427.325ZM557.26 231.71C496.226 231.71 448.787 271.342 429.548 336.613C400.248 292.564 377.89 239.608 364.944 195H299.204V366.003C299.114 399.811 271.78 427.145 237.972 427.235C204.165 427.145 176.83 399.72 176.74 366.003V195H111V366.003C111 436.052 167.995 493.444 237.972 493.444C308.021 493.444 364.944 436.07 364.944 366.003V337.352C377.71 363.93 393.397 390.976 412.455 414.83L372.174 604.062H439.411L468.621 466.759C494.17 483.094 523.56 493.426 557.278 493.426C629.4 493.426 688 434.448 688 362.415C688 290.292 629.4 231.692 557.278 231.692L557.26 231.71Z" fill="#6FDA44"/>
<path d="M557.26 427.325C530.772 427.325 505.89 416.146 483.352 397.845L488.797 372.025L488.977 370.998C493.954 343.573 509.352 297.468 557.241 297.468C593.123 297.468 622.224 326.588 622.224 362.451C622.224 398.224 593.105 427.343 557.241 427.343L557.26 427.325ZM557.26 231.71C496.226 231.71 448.787 271.342 429.548 336.613C400.248 292.564 377.89 239.608 364.944 195H299.204V366.003C299.114 399.811 271.78 427.145 237.972 427.235C204.165 427.145 176.83 399.72 176.74 366.003V195H111V366.003C111 436.052 167.995 493.444 237.972 493.444C308.021 493.444 364.944 436.07 364.944 366.003V337.352C377.71 363.93 393.397 390.976 412.455 414.83L372.174 604.062H439.411L468.621 466.759C494.17 483.094 523.56 493.426 557.278 493.426C629.4 493.426 688 434.448 688 362.415C688 290.292 629.4 231.692 557.278 231.692L557.26 231.71Z" stroke="#6FDA44"/>
</g>
<defs>
<filter id="filter0_d_13_9" x="107" y="195" width="585" height="417.062" filterUnits="userSpaceOnUse" color-interpolation-filters="sRGB">
<feFlood flood-opacity="0" result="BackgroundImageFix"/>
<feColorMatrix in="SourceAlpha" type="matrix" values="0 0 0 0 0 0 0 0 0 0 0 0 0 0 0 0 0 0 127 0" result="hardAlpha"/>
<feOffset dy="4"/>
<feGaussianBlur stdDeviation="2"/>
<feComposite in2="hardAlpha" operator="out"/>
<feColorMatrix type="matrix" values="0 0 0 0 0 0 0 0 0 0 0 0 0 0 0 0 0 0 0.25 0"/>
<feBlend mode="normal" in2="BackgroundImageFix" result="effect1_dropShadow_13_9"/>
<feBlend mode="normal" in="SourceGraphic" in2="effect1_dropShadow_13_9" result="shape"/>
</filter>
</defs>
</svg>
